<svg id="Layer_1" enable-background="new 0 0 510 510" height="512" viewBox="0 0 510 510" width="512" xmlns="http://www.w3.org/2000/svg"><g id="XMLID_256_"><path id="XMLID_295_" d="m75 180c0 72.747 43.122 135.266 105 163.668v91.332l30 15 30-15 7.5-82.5 7.5-82.5 15-135-15-135c-99.237 0-180 80.417-180 180z" fill="#ffec29"/><path id="XMLID_294_" d="m330 343.668c62.074-28.492 105-91.144 105-163.668 0-99.408-80.586-180-180-180v270l15 165 31.25 15 28.75-15c0-11.051 0-80.208 0-91.332z" fill="#ffd321"/><path id="XMLID_289_" d="m240 270v82.5 82.5l7.5 15 7.5-15 15-82.5-15-82.5-7.5-15z" fill="#694d33"/><path id="XMLID_288_" d="m270 270-7.5-15-7.5 15v82.5 82.5l7.5 15 7.5-15v-82.5z" fill="#4f4540"/><path id="XMLID_293_" d="m180 435v75h75l15-37.5-15-37.5c-20.194 0-63.236 0-75 0z" fill="#694d33"/><path id="XMLID_292_" d="m330 435c-20.194 0-63.236 0-75 0v75h75c0-20.194 0-63.236 0-75z" fill="#4f4540"/><path id="XMLID_255_" d="m255 270c-1.669 0-50.585 0-49 0-30.927 0-56-25.071-56-56 0-6.645 0-12.355 0-19 1.669 0 50.585 0 49 0 30.927 0 56 25.071 56 56l15 9.5z" fill="#8ee26b"/><path id="XMLID_290_" d="m360 214c0-6.645 0-12.355 0-19-17.134 0-31.866 0-49 0-30.927 0-56 25.071-56 56v19h49c15.464 0 29.464-6.268 39.598-16.402s16.402-24.134 16.402-39.598z" fill="#00cbb1"/></g></svg>